<?xml version="1.0" encoding="utf-8"?>
<!-- Generator: Adobe Illustrator 26.0.3, SVG Export Plug-In . SVG Version: 6.00 Build 0)  -->
<svg version="1.1" id="Layer_1" xmlns="http://www.w3.org/2000/svg" xmlns:xlink="http://www.w3.org/1999/xlink" x="0px" y="0px"
	 viewBox="0 0 75 102" style="enable-background:new 0 0 75 102;" xml:space="preserve">
<style type="text/css">
	.st0{clip-path:url(#SVGID_00000095296768834244369250000012175997754583727759_);}
	.st1{fill:#FADE4B;}
	.st2{fill:#F8F8F8;}
</style>
<g>
	<defs>
		<rect id="SVGID_1_" x="0" width="75" height="102"/>
	</defs>
	<clipPath id="SVGID_00000106114559744718943010000018319423006133310357_">
		<use xlink:href="#SVGID_1_"  style="overflow:visible;"/>
	</clipPath>
	<g style="clip-path:url(#SVGID_00000106114559744718943010000018319423006133310357_);">
		<path class="st1" d="M74,3.8c0,0-32.4,66.8-36,68.3c-0.4,1.1-3.4,3.6-4.4,2.9c-1-0.7-5.8-14.6-6.4-14.8c-0.6-0.2-0.7-1.3-1.9,0.5
			C24.2,62.4,4.5,92.1,1.2,93.9c-3.1,1.3,0.6-7.6,4.2-13.8C8.9,73.9,21.2,48.2,24,44.5c2.8-3.7,9-14.3,9.6-14.8
			c0.6-0.5,2.4-1.2,3.1,0.4c0.7,1.6,2.4,9.2,2.4,9.2s0.6,3,1,3.6c0.4,0.6,1.6,1,1.9,0.7c0.3-0.4,0.9-5.1,6-11
			c5.1-5.9,12.2-16.9,12.4-17.6c0.2-0.7,5.5-9,6.3-10.1c0.8-1,2.6-3.3,3.1-3.8C70.4,0.6,74.7-2.2,74,3.8z"/>
		<path class="st2" d="M75,11.1c0,0-25.7,53.9-32.8,63.5c-0.6,2.2-7.1,13.2-9.8,6c-2.7-7.2-4.1-9.9-4.6-11.4
			c-0.6-1.5-1.1-1.8-3.1,1.4C22.7,73.8,9.4,93.2,7,96.2c-2.4,2.9-7.1,9.8-5.6,2.8c0.9-4.1,3.5-5.2,5.1-7.4
			c1.6-2.2,8.7-10.9,9.2-12.4c0.5-1.5,4-6,4.7-7c0.8-1,3.9-5.1,4.2-6.2c0.4-1.1,3.1-6.5,4.6-1.3c1.5,5.2,3,9.6,3.6,10.5
			c0.6,1,3.2,5.8,7.5-2.1c4.3-7.9,13.4-24.6,15.2-27.7c1.8-3.1,7.3-13.3,8.1-15.6c0.8-2.3,5.5-12.4,6.6-14.2c1.1-1.8,2.3-4,2.8-4.9
			C73.5,10,75.2,8.9,75,11.1z"/>
	</g>
</g>
</svg>
