<svg width="75" height="102" viewBox="0 0 75 102" fill="none" xmlns="http://www.w3.org/2000/svg">
<g clip-path="url(#clip0)">
<path d="M1.02254 3.83787C1.02254 3.83787 33.4438 70.6453 37.0066 72.1206C37.3629 73.1896 40.409 75.7517 41.4031 75.0212C42.3971 74.2907 47.1427 60.3826 47.7626 60.1866C48.3825 59.9906 48.4965 58.8824 49.6473 60.6605C50.7981 62.4387 70.4468 92.1543 73.8457 93.8932C76.9275 95.2117 73.2186 86.3245 69.663 80.1063C66.1073 73.8881 53.8193 48.2027 51.0119 44.5431C48.2044 40.8834 41.9695 30.2216 41.3924 29.7512C40.8152 29.2809 39.0409 28.5468 38.307 30.1076C37.5731 31.6684 35.9021 39.3084 35.9021 39.3084C35.9021 39.3084 35.2751 42.2874 34.9117 42.8718C34.5483 43.4562 33.3441 43.9159 33.0305 43.5525C32.717 43.189 32.0899 38.4817 27.0201 32.5735C21.9503 26.6653 14.8461 15.6899 14.6288 14.9558C14.4115 14.2218 9.08867 5.9118 8.30486 4.86771C7.52104 3.82362 5.74322 1.52163 5.16962 1.05126C4.59601 0.580883 0.320673 -2.20929 1.02254 3.83787Z" fill="#FADE4B"/>
<path d="M0.0213666 11.1C0.0213666 11.1 25.7268 64.9971 32.7989 74.6327C33.3796 76.8384 39.8781 87.8637 42.5467 80.6691C45.2152 73.4745 46.6082 70.802 47.1783 69.2911C47.7483 67.7802 48.2899 67.488 50.3028 70.6523C52.3158 73.8166 65.6228 93.2196 67.9778 96.1665C70.3328 99.1135 75.1033 105.941 73.582 98.9674C72.6486 94.873 70.062 93.722 68.4837 91.5661C66.9054 89.4103 59.7869 80.7119 59.2846 79.2046C58.7822 77.6972 55.3335 73.1681 54.5425 72.1596C53.7516 71.1512 50.6627 67.0568 50.3028 65.9806C49.943 64.9045 47.2317 59.5165 45.7318 64.7263C44.2319 69.936 42.6927 74.2834 42.1013 75.2705C41.5099 76.2576 38.9447 81.0326 34.6409 73.1325C30.337 65.2323 21.2591 48.5447 19.4848 45.4588C17.7106 42.3728 12.1419 32.1137 11.351 29.8651C10.5601 27.6166 5.86432 17.4679 4.75985 15.6898C3.65539 13.9116 2.47255 11.7023 1.9987 10.8364C1.52485 9.97044 -0.171023 8.8729 0.0213666 11.1Z" fill="#F8F8F8"/>
</g>
<defs>
<clipPath id="clip0">
<rect width="75" height="102" fill="white"/>
</clipPath>
</defs>
</svg>
