<svg width="75" height="102" viewBox="0 0 75 102" fill="none" xmlns="http://www.w3.org/2000/svg">
<g clip-path="url(#clip0)">
<path d="M73.9812 3.83721C73.9812 3.83721 41.56 70.6446 37.9972 72.1163C37.6231 73.1854 34.5912 75.7511 33.6007 75.017C32.6103 74.2829 27.8504 60.3819 27.2234 60.1717C26.5963 59.9614 26.5108 58.8639 25.3422 60.6421C24.1736 62.4202 4.53204 92.1358 1.15097 93.8747C-1.9344 95.1968 1.77801 86.3095 5.3301 80.0878C8.88219 73.866 21.1666 48.2021 23.9919 44.5424C26.8172 40.8828 33.0307 30.2174 33.6114 29.747C34.1922 29.2766 35.9629 28.5461 36.6932 30.1033C37.4236 31.6606 39.0981 39.3042 39.0981 39.3042C39.0981 39.3042 39.7251 42.2832 40.0921 42.8676C40.4591 43.452 41.6597 43.9117 41.9733 43.5447C42.2868 43.1776 42.9138 38.4739 47.9837 32.5693C53.0535 26.6646 60.1612 15.6821 60.3714 14.9516C60.5816 14.2211 65.9116 5.90757 66.6954 4.86348C67.4792 3.81939 69.2534 1.5174 69.8306 1.04703C70.4078 0.576654 74.6831 -2.21352 73.9812 3.83721Z" fill="#FADE4B"/>
<path d="M74.9894 11.0965C74.9894 11.0965 49.2804 64.9936 42.2119 74.6292C41.6311 76.8349 35.1326 87.8638 32.4606 80.6656C29.7885 73.4675 28.399 70.7985 27.829 69.2911C27.2589 67.7838 26.7174 67.488 24.708 70.6488C22.6986 73.8096 9.38803 93.2161 7.02947 96.1631C4.67091 99.11 -0.0960743 105.938 1.42523 98.9675C2.35868 94.8695 4.94523 93.7221 6.52711 91.5627C8.10898 89.4032 15.2203 80.712 15.7262 79.2011C16.2321 77.6902 19.6773 73.1646 20.4683 72.1597C21.2592 71.1548 24.3481 67.0569 24.708 65.9771C25.0678 64.8974 27.7755 59.5166 29.2754 64.7264C30.7754 69.9361 32.3145 74.28 32.9095 75.267C33.5045 76.2541 36.0661 81.0327 40.3664 73.129C44.6666 65.2253 53.7481 48.5412 55.526 45.4553C57.3038 42.3693 62.8653 32.1102 63.6562 29.8581C64.4472 27.606 69.1429 17.4644 70.2474 15.6863C71.3518 13.9081 72.5382 11.6988 73.0121 10.8293C73.4859 9.95981 75.1711 8.8694 74.9894 11.0965Z" fill="#F8F8F8"/>
</g>
<defs>
<clipPath id="clip0">
<rect width="75" height="102" fill="white" transform="translate(0.00012207)"/>
</clipPath>
</defs>
</svg>
