<svg id="Layer_1" data-name="Layer 1" xmlns="http://www.w3.org/2000/svg" viewBox="0 0 1895 1055.71"><defs><style>.cls-1{fill:#f5f5f5;}.cls-2{fill:#0a0a0a;}</style></defs><path class="cls-1" d="M1862.33,843.22c-49.86,96.77-140.77,155.42-266.86,155.42-215.54,0-344.58-167.16-344.58-460.41,0-296.18,132-460.4,338.71-460.4,83.57,0,148.09,26.39,190.62,67.44-11.73-4.4-24.93-5.86-39.6-5.86-80.64,0-148.09,60.11-148.09,146.62s66,148.1,149.56,148.1c90.91,0,148.09-66,148.09-140.76V286c0-139.29-167.15-275.65-409.08-275.65-129.27,0-246.78,39.39-340.35,106.44V25H810.84L580.64,478.12,353.37,25H0V1051.42H35.19V92.49L415,825.62h23.46L818.17,92.49v958.93h322.58V958.69c96.11,68.17,216.61,107.4,346.21,107.4,195,0,346-86.51,407.62-202.35Z" transform="translate(0 -10.38)"/><path class="cls-2" d="M1862.74,843.22C1812.89,940,1722,998.64,1595.88,998.64c-215.54,0-344.57-167.16-344.57-460.41,0-296.18,132-460.4,338.71-460.4,83.57,0,148.09,26.39,190.61,67.44-11.73-4.39-24.92-5.86-39.59-5.86C1660.4,139.41,1593,199.52,1593,286s66,148.09,149.56,148.09c90.91,0,148.09-66,148.09-140.76V286c0-139.3-167.15-275.66-409.09-275.66-129.26,0-246.77,39.39-340.34,106.44V25H951.5V1051.42h189.67V958.69c96.11,68.17,216.61,107.4,346.21,107.4,195,0,346-86.51,407.62-202.35Z" transform="translate(0 -10.38)"/></svg>