<svg id="Layer_1" data-name="Layer 1" xmlns="http://www.w3.org/2000/svg" viewBox="0 0 3047.18 1678.22"><defs><style>.cls-1{fill:#e52b50;}.cls-2{fill:#f2f2f2;}</style></defs><path class="cls-1" d="M1604.89,1676.55l269.77.14V1529.27C2027.44,1637.64,2219,1700,2425,1700c310,0,550.08-137.52,648-321.66l-51.28-32.63c-79.25,153.84-223.77,247.07-424.22,247.07-342.63,0-547.75-265.72-547.75-731.9,0-470.83,209.78-731.89,538.43-731.89,132.85,0,235.41,42,303,107.23-18.65-7-39.63-9.33-62.94-9.33-128.2,0-235.42,95.56-235.42,233.09s104.89,235.41,237.75,235.41c144.51,0,235.41-104.88,235.41-223.76V460c0-75.72-31.07-150.89-87.33-217-108.28-127.3-309.89-221.17-563-221.17-205.49,0-392.29,62.61-541,169.2V45.09H1604.89Z" transform="translate(-25.82 -21.78)"/><path class="cls-2" d="M1347.63,44.7,981.69,764.94,620.41,44.7H282c-62.36,89.43-115.09,208.12-115.09,208.12S4.92,563.82,28.09,981,240.62,1676.3,240.62,1676.3l148.36-103c-75.41-154.4-138-322.84-167.81-492.23C187,887.17,217.47,663.82,283.83,478.6L718.3,1317.35h37.29l603.7-1165.44V1676.3h245V44.7Z" transform="translate(-25.82 -21.78)"/></svg>