<svg id="Layer_1" data-name="Layer 1" xmlns="http://www.w3.org/2000/svg" viewBox="0 0 2536 2536"><defs><style>.cls-1{fill:#f2f2f2;}.cls-2{fill:#0a0a0a;}</style></defs><path class="cls-1" d="M1268,2536C567.7,2536,0,1968.3,0,1268S567.7,0,1268,0Z" transform="translate(0 0)"/><path class="cls-2" d="M2437.05,1709.87a32.81,32.81,0,0,1,2.09-13l-.54-4a39.48,39.48,0,0,1,37.38-38.31,1275.34,1275.34,0,0,0,14.07-725.89,65.53,65.53,0,0,1-5.68,4.14,88.53,88.53,0,0,1-65.75,17.52,66.07,66.07,0,0,1-33.08-10.56l-18-13.91-13.92-18-9-21.26c-2.24-5.78-4.49-11.58-5.55-17.71-3.48-20.19-4.37-31.29-.1-51.48.17-.8.32-1.58.52-2.38.9-3.43,7.45-18.58,9.18-21.81.19-.34.32-.72.52-1.06s.55-.84.82-1.27c1.49-2.37,12.38-16.47,14.3-18.5.62-.65,1.23-1.28,1.89-1.89A184.63,184.63,0,0,1,2386,755.17c.94-.64,1.89-1.26,2.87-1.84,5.86-3.46,12.19-6.17,18.33-9.07a91.41,91.41,0,0,1,13-6.25C2219.53,302.39,1779.09,0,1268,0V2536c535.28,0,993.05-331.69,1179.09-800.73A41.36,41.36,0,0,1,2437.05,1709.87Z" transform="translate(0 0)"/><path class="cls-2" d="M1292.75,1909.88V571.65H1082.2L782.05,1162.39,485.73,571.65H208.15c-51.15,73.35-94.4,170.7-94.4,170.7L566,1615.47h30.58l495.15-955.88V1909.88Z" transform="translate(0 0)"/><path class="cls-1" d="M2476.52,1652.94l-22.83-14.53c-65,126.18-183.53,202.65-347.94,202.65-281,0-449.26-217.94-449.26-600.3,0-386.17,172.06-600.28,441.61-600.28,109,0,193.09,34.41,248.54,87.94-15.3-5.74-32.5-7.65-51.63-7.65-105.14,0-193.08,78.38-193.08,191.18s86,193.08,195,193.08c115.9,0,189.76-82.26,193-177.07,0,0-25.14-119.08-71.52-194-72.14-116.55-254.16-181.4-461.74-181.4-168.54,0-321.75,51.35-443.76,138.78V571.65H1265.59V1909.88h247.29V1789c125.32,88.88,282.43,140,451.4,140,212.18,0,384.42-78.54,482.28-192.31C2446.56,1736.69,2463,1697,2476.52,1652.94Z" transform="translate(0 0)"/></svg>