<svg id="Layer_4" data-name="Layer 4" xmlns="http://www.w3.org/2000/svg" viewBox="0 0 495.5 495.5"><defs><style>.cls-1{fill:#fff;}</style></defs><path class="cls-1" d="M359.87,138.38c122.47,0,221.75,99.28,221.75,221.75S482.34,581.88,359.87,581.88,138.12,482.6,138.12,360.13,237.4,138.38,359.87,138.38m0-26a247.11,247.11,0,1,0,96.44,19.48,246.15,246.15,0,0,0-96.44-19.48Z" transform="translate(-112.12 -112.38)"/><polygon class="cls-1" points="205.6 217.43 247.75 197.69 203.19 367.49 261.02 338.46 249.64 473.68 305.69 291.22 237.64 329.56 305.69 139.62 235.4 175.54 271.62 21.82 247.9 21.82 212.01 20.01 205.6 217.43"/></svg>