<svg id="Layer_1" data-name="Layer 1" xmlns="http://www.w3.org/2000/svg" viewBox="0 0 3047.18 1678.22"><defs><style>.cls-1{fill:#0a0a0a;}.cls-2{fill:#f5f5f5;}.cls-3{fill:#f2f2f2;}</style></defs><path class="cls-1" d="M2425,1693.5c-100.72,0-199.36-15-293.19-44.43-91.76-28.82-177-70.91-253.41-125.1l-10.26-7.27v153.48l-256.77-.12V51.59h256.77v152l10.29-7.37A885,885,0,0,1,2125.87,72.6c92.35-29.41,189.86-44.32,289.83-44.32A947.4,947.4,0,0,1,2594,44.82a806.87,806.87,0,0,1,155,45.82c92.23,38,169.93,92.12,224.71,156.52,56.12,66,85.78,139.57,85.78,212.82v11.65c0,57.92-21.88,111.86-61.62,151.88a214,214,0,0,1-72,47.61c-29.09,11.79-61.16,17.77-95.31,17.77-63.24,0-121.54-22.83-164.16-64.29-43.26-42.09-67.09-100.55-67.09-164.62,0-63.55,24-121.59,67.64-163.43,42.46-40.73,99.74-63.16,161.28-63.16,25.17,0,44.44,2.83,60.65,8.91l29.35,11-22.55-21.77c-73.9-71.34-180.24-109-307.53-109-341.22,0-544.93,276-544.93,738.39,0,229.16,50.73,417.51,146.7,544.68,95.64,126.73,236.57,193.72,407.55,193.72,191.5,0,342.75-86.68,426.7-244.29l40.2,25.58c-49.37,89.92-131.82,166.54-238.84,221.88C2710.36,1662,2571.86,1693.5,2425,1693.5Z" transform="translate(-25.82 -21.78)"/><path class="cls-2" d="M2415.7,34.78A941,941,0,0,1,2592.75,51.2a800.5,800.5,0,0,1,153.78,45.45c91.28,37.61,168.13,91.11,222.24,154.72C3023.87,316.15,3053,388.29,3053,460v11.65a212.35,212.35,0,0,1-15.5,80.22,203.07,203.07,0,0,1-44.24,67.08,207.47,207.47,0,0,1-69.8,46.17c-28.32,11.47-59.56,17.29-92.87,17.29-61.54,0-118.23-22.18-159.63-62.45a210.54,210.54,0,0,1-47.66-70.17c-11.58-27.75-17.46-57.95-17.46-89.79s6-61.75,17.72-89.34a209.41,209.41,0,0,1,47.91-69.4c41.25-39.56,96.93-61.35,156.79-61.35,24.36,0,42.91,2.7,58.37,8.5l58.69,22-45.09-43.54c-75.14-72.53-183-110.87-312.05-110.87-167.63,0-306.93,67.28-402.84,194.56-97.21,129-148.59,319.31-148.59,550.33,0,230.59,51.18,420.29,148,548.6s239.64,196.3,412.74,196.3c191.52,0,343.33-85.64,429.09-241.56l29.15,18.54c-23.19,40.85-53.63,79.18-90.61,114.06-40.7,38.39-88.66,72-142.55,99.85-55.64,28.77-117,51.08-182.25,66.3-68.37,16-140.81,24-215.31,24-100.05,0-198-14.85-291.25-44.13-91.1-28.62-175.75-70.41-251.59-124.2l-20.52-14.55v159.56l-243.77-.12V58.09h243.77v158.2l20.57-14.74A878.56,878.56,0,0,1,2127.85,78.8c91.7-29.21,188.55-44,287.85-44m0-13c-205.49,0-392.29,62.61-541,169.2V45.09H1604.89V1676.55l269.77.14V1529.27C2027.44,1637.64,2219,1700,2425,1700c310,0,550.08-137.52,648-321.66l-51.28-32.63c-79.25,153.84-223.77,247.07-424.22,247.07-342.63,0-547.75-265.72-547.75-731.9,0-470.83,209.78-731.89,538.43-731.89,132.85,0,235.41,42,303,107.23-18.65-7-39.63-9.33-62.94-9.33-128.2,0-235.42,95.56-235.42,233.09s104.89,235.41,237.75,235.41c144.51,0,235.41-104.88,235.41-223.76V460c0-75.72-31.07-150.89-87.33-217-108.28-127.3-309.89-221.17-563-221.17Z" transform="translate(-25.82 -21.78)"/><path class="cls-3" d="M1347.63,44.7,981.69,764.94,620.41,44.7H282c-62.36,89.43-115.09,208.12-115.09,208.12S4.92,563.82,28.09,981,240.62,1676.3,240.62,1676.3l148.36-103c-75.41-154.4-138-322.84-167.81-492.23C187,887.17,217.47,663.82,283.83,478.6L718.3,1317.35h37.29l603.7-1165.44V1676.3h245V44.7Z" transform="translate(-25.82 -21.78)"/></svg>