<svg id="Layer_1" data-name="Layer 1" xmlns="http://www.w3.org/2000/svg" viewBox="0 0 2499.27 1376.46"><defs><style>.cls-1{fill:#0a0a0a;}.cls-2{fill:#f2f2f2;}</style></defs><path class="cls-1" d="M2457.69,1101.41c-65,126.18-183.53,202.65-347.94,202.65-281,0-449.26-217.94-449.26-600.3,0-386.17,172.06-600.28,441.61-600.28,109,0,193.09,34.41,248.54,87.94-15.3-5.74-32.5-7.65-51.63-7.65-105.14,0-193.08,78.38-193.08,191.18S2192,568,2300.93,568C2419.46,568,2494,482,2494,384.5V375c0-62.11-25.48-123.76-71.63-178-88.81-104.41-254.16-181.4-461.74-181.4-168.54,0-321.75,51.35-443.76,138.78V34.65H1269.59V1372.88h247.29V1252c125.32,88.88,282.43,140,451.4,140,254.26,0,451.18-112.8,531.47-263.83Z" transform="translate(-0.48 -15.54)"/><path class="cls-2" d="M1084.62,34.34,784.48,625.07,488.16,34.34H210.57C159.42,107.68,116.18,205,116.18,205S-16.66,460.12,2.34,802.31s174.32,570.25,174.32,570.25l121.68-84.44c-61.85-126.64-113.19-264.8-137.64-403.73-28-159.06-3-342.25,51.4-494.17l356.35,687.93H599l495.14-955.88V1372.56h201V34.34Z" transform="translate(-0.48 -15.54)"/></svg>